<svg xmlns="http://www.w3.org/2000/svg" xmlns:xlink="http://www.w3.org/1999/xlink" width="500" zoomAndPan="magnify" viewBox="0 0 375 374.999991" height="500" preserveAspectRatio="xMidYMid meet" version="1.0"><defs><g/></defs><g fill="#2fa89c" fill-opacity="1"><g transform="translate(15.897656, 209.624986)"><g><path d="M 33.734375 -45.625 L 33.734375 -36.71875 L 15.140625 -36.71875 L 15.140625 -27.109375 L 29.0625 -27.109375 L 29.0625 -18.453125 L 15.140625 -18.453125 L 15.140625 0 L 4.03125 0 L 4.03125 -45.625 Z M 33.734375 -45.625 "/></g></g></g><g fill="#2fa89c" fill-opacity="1"><g transform="translate(51.448416, 209.624986)"><g><path d="M 15.140625 -48.09375 L 15.140625 0 L 4.03125 0 L 4.03125 -48.09375 Z M 15.140625 -48.09375 "/></g></g></g><g fill="#2fa89c" fill-opacity="1"><g transform="translate(70.621125, 209.624986)"><g><path d="M 38.21875 -18.71875 C 38.21875 -17.675781 38.15625 -16.59375 38.03125 -15.46875 L 12.875 -15.46875 C 13.039062 -13.21875 13.765625 -11.492188 15.046875 -10.296875 C 16.328125 -9.109375 17.898438 -8.515625 19.765625 -8.515625 C 22.535156 -8.515625 24.460938 -9.6875 25.546875 -12.03125 L 37.375 -12.03125 C 36.769531 -9.644531 35.675781 -7.5 34.09375 -5.59375 C 32.507812 -3.6875 30.523438 -2.191406 28.140625 -1.109375 C 25.753906 -0.0234375 23.09375 0.515625 20.15625 0.515625 C 16.59375 0.515625 13.425781 -0.238281 10.65625 -1.75 C 7.882812 -3.269531 5.71875 -5.4375 4.15625 -8.25 C 2.59375 -11.070312 1.8125 -14.367188 1.8125 -18.140625 C 1.8125 -21.910156 2.582031 -25.203125 4.125 -28.015625 C 5.664062 -30.828125 7.820312 -32.992188 10.59375 -34.515625 C 13.363281 -36.035156 16.550781 -36.796875 20.15625 -36.796875 C 23.664062 -36.796875 26.785156 -36.054688 29.515625 -34.578125 C 32.242188 -33.109375 34.375 -31.007812 35.90625 -28.28125 C 37.445312 -25.550781 38.21875 -22.363281 38.21875 -18.71875 Z M 26.84375 -21.640625 C 26.84375 -23.546875 26.191406 -25.0625 24.890625 -26.1875 C 23.585938 -27.320312 21.960938 -27.890625 20.015625 -27.890625 C 18.148438 -27.890625 16.578125 -27.347656 15.296875 -26.265625 C 14.023438 -25.179688 13.238281 -23.640625 12.9375 -21.640625 Z M 26.84375 -21.640625 "/></g></g></g><g fill="#2fa89c" fill-opacity="1"><g transform="translate(110.656344, 209.624986)"><g><path d="M 25.484375 0 L 18.53125 -10.078125 L 12.671875 0 L 0.65625 0 L 12.609375 -18.53125 L 0.328125 -36.265625 L 12.8125 -36.265625 L 19.765625 -26.265625 L 25.609375 -36.265625 L 37.640625 -36.265625 L 25.484375 -18 L 37.953125 0 Z M 25.484375 0 "/></g></g></g><g fill="#000000" fill-opacity="1"><g transform="translate(148.882026, 209.624986)"><g/></g></g><g fill="#1c2d35" fill-opacity="1"><g transform="translate(162.663275, 209.624986)"><g><path d="M 32.4375 -8.0625 L 15.40625 -8.0625 L 12.671875 0 L 1.046875 0 L 17.546875 -45.625 L 30.421875 -45.625 L 46.9375 0 L 35.171875 0 Z M 29.578125 -16.640625 L 23.921875 -33.34375 L 18.328125 -16.640625 Z M 29.578125 -16.640625 "/></g></g></g><g fill="#1c2d35" fill-opacity="1"><g transform="translate(210.562564, 209.624986)"><g><path d="M 15.140625 -31.140625 C 16.222656 -32.828125 17.71875 -34.191406 19.625 -35.234375 C 21.53125 -36.273438 23.765625 -36.796875 26.328125 -36.796875 C 29.316406 -36.796875 32.023438 -36.035156 34.453125 -34.515625 C 36.878906 -32.992188 38.796875 -30.828125 40.203125 -28.015625 C 41.609375 -25.203125 42.3125 -21.929688 42.3125 -18.203125 C 42.3125 -14.472656 41.609375 -11.1875 40.203125 -8.34375 C 38.796875 -5.507812 36.878906 -3.320312 34.453125 -1.78125 C 32.023438 -0.25 29.316406 0.515625 26.328125 0.515625 C 23.816406 0.515625 21.59375 0 19.65625 -1.03125 C 17.726562 -2.070312 16.222656 -3.414062 15.140625 -5.0625 L 15.140625 17.296875 L 4.03125 17.296875 L 4.03125 -36.265625 L 15.140625 -36.265625 Z M 31 -18.203125 C 31 -20.972656 30.226562 -23.148438 28.6875 -24.734375 C 27.15625 -26.316406 25.265625 -27.109375 23.015625 -27.109375 C 20.796875 -27.109375 18.914062 -26.304688 17.375 -24.703125 C 15.84375 -23.097656 15.078125 -20.910156 15.078125 -18.140625 C 15.078125 -15.359375 15.84375 -13.164062 17.375 -11.5625 C 18.914062 -9.96875 20.796875 -9.171875 23.015625 -9.171875 C 25.222656 -9.171875 27.101562 -9.984375 28.65625 -11.609375 C 30.21875 -13.234375 31 -15.429688 31 -18.203125 Z M 31 -18.203125 "/></g></g></g><g fill="#1c2d35" fill-opacity="1"><g transform="translate(254.692295, 209.624986)"><g><path d="M 15.140625 -31.140625 C 16.222656 -32.828125 17.71875 -34.191406 19.625 -35.234375 C 21.53125 -36.273438 23.765625 -36.796875 26.328125 -36.796875 C 29.316406 -36.796875 32.023438 -36.035156 34.453125 -34.515625 C 36.878906 -32.992188 38.796875 -30.828125 40.203125 -28.015625 C 41.609375 -25.203125 42.3125 -21.929688 42.3125 -18.203125 C 42.3125 -14.472656 41.609375 -11.1875 40.203125 -8.34375 C 38.796875 -5.507812 36.878906 -3.320312 34.453125 -1.78125 C 32.023438 -0.25 29.316406 0.515625 26.328125 0.515625 C 23.816406 0.515625 21.59375 0 19.65625 -1.03125 C 17.726562 -2.070312 16.222656 -3.414062 15.140625 -5.0625 L 15.140625 17.296875 L 4.03125 17.296875 L 4.03125 -36.265625 L 15.140625 -36.265625 Z M 31 -18.203125 C 31 -20.972656 30.226562 -23.148438 28.6875 -24.734375 C 27.15625 -26.316406 25.265625 -27.109375 23.015625 -27.109375 C 20.796875 -27.109375 18.914062 -26.304688 17.375 -24.703125 C 15.84375 -23.097656 15.078125 -20.910156 15.078125 -18.140625 C 15.078125 -15.359375 15.84375 -13.164062 17.375 -11.5625 C 18.914062 -9.96875 20.796875 -9.171875 23.015625 -9.171875 C 25.222656 -9.171875 27.101562 -9.984375 28.65625 -11.609375 C 30.21875 -13.234375 31 -15.429688 31 -18.203125 Z M 31 -18.203125 "/></g></g></g><g fill="#1c2d35" fill-opacity="1"><g transform="translate(298.822026, 209.624986)"><g><path d="M 15.140625 -48.09375 L 15.140625 0 L 4.03125 0 L 4.03125 -48.09375 Z M 15.140625 -48.09375 "/></g></g></g><g fill="#1c2d35" fill-opacity="1"><g transform="translate(317.994735, 209.624986)"><g><path d="M 41.078125 -36.265625 L 18.328125 17.21875 L 6.375 17.21875 L 14.6875 -1.234375 L -0.0625 -36.265625 L 12.34375 -36.265625 L 20.734375 -13.578125 L 29.0625 -36.265625 Z M 41.078125 -36.265625 "/></g></g></g></svg>